<svg xmlns="http://www.w3.org/2000/svg" width="75" height="26" fill="none"><path fill="#E30513" d="M.7 17.4c1.816-.312 3.515-1.035 5.097-2.168C7.398 14.08 8.6 12.664 9.4 10.984H1.227V8.29h9.052c.254-1.27.381-2.685.381-4.248H1.227V1.229h12.216c.254 0 .47.078.645.234.176.137.264.371.264.703 0 2.11-.157 4.014-.47 5.713h4.747V.467h3.398v21.006H18.63v-10.84H13.15C11.275 15.984 7.125 19.275.7 20.506V17.4Zm28.71-4.54c-.644 0-1.181-.196-1.611-.587-.43-.41-.645-.937-.645-1.582V.936h3.399v9.17h6.709v2.753H29.41Zm.527 3.163H46.49c.469 0 .86.147 1.172.44.313.293.469.674.469 1.142v8.028h-3.399v-6.797H29.938v-2.813Zm5.479-11.455h4.16V.584H42.8v13.447h-3.223v-6.65h-4.16V4.568ZM44.85.467h3.28v13.681h-3.28V.467ZM57.33 3.63v5.303h15.908v2.754H55.28c-.37 0-.693-.118-.967-.352-.253-.234-.38-.547-.38-.938V.877h19.101v2.754H57.33Zm-5.156 10.84h22.558v2.812h-5.185v5.742h-3.399v-5.742h-5.39v5.742h-3.399v-5.742h-5.185v-2.812Z"/></svg>