<svg xmlns="http://www.w3.org/2000/svg" width="56" height="57" fill="none"><path fill="#fff" stroke="#E30513" stroke-width=".3" d="M55.85 28.5c0 15.66-12.471 28.35-27.85 28.35C12.621 56.85.15 44.16.15 28.5.15 12.84 12.621.15 28 .15c15.379 0 27.85 12.69 27.85 28.35Z"/><path stroke="#E30513" stroke-linecap="round" stroke-linejoin="round" stroke-width="1.25" d="M21.875 45.375h11.25m5.625-21.094v2.813c0 6.187-5.063 11.25-11.25 11.25m0 0c-6.188 0-11.25-5.063-11.25-11.25V24.28M27.5 38.344v7.031"/><path fill="#E30513" d="M27.5 34.125a6.928 6.928 0 0 1-4.97-2.118 7.11 7.11 0 0 1-2.061-5.001V17.25a7.004 7.004 0 0 1 7.031-7.031c3.943 0 7.031 3.088 7.031 7.031v9.756c0 3.925-3.154 7.119-7.03 7.119Z"/></svg>